<?xml version="1.0" encoding="UTF-8"?><!DOCTYPE svg PUBLIC "-//W3C//DTD SVG 1.1//EN" "http://www.w3.org/Graphics/SVG/1.1/DTD/svg11.dtd">
<svg xmlns="http://www.w3.org/2000/svg" xmlns:xlink="http://www.w3.org/1999/xlink">
	<symbol id="plyr-airplay">
		<path d="M9.582 10.462c-.291-.385-.945-.385-1.164 0l-3.563 5.385a.616.616 0 0 0-.072.769c.145.231.363.384.654.384h7.199c.291 0 .51-.153.655-.385.146-.23.072-.538-.073-.769l-3.636-5.384z"></path>
		<path d="M14.818 1H3.182C1.945 1 1 2 1 3.308V11c0 1.308.945 2.308 2.182 2.308h1.31c.437 0 .727-.308.727-.769 0-.462-.29-.77-.727-.77h-1.31c-.437 0-.728-.308-.728-.77V3.308c0-.462.291-.77.728-.77h11.637c.436 0 .727.308.727.77V11c0 .462-.291.77-.727.77h-1.31c-.437 0-.728.308-.728.77 0 .461.291.769.728.769h1.31c1.236 0 2.182-1 2.182-2.308V3.308C17 2 16.055 1 14.818 1z"></path>
	</symbol>
	<symbol id="plyr-captions-off">
		<path d="M16.435,11.396c0,0.569-0.411,0.975-0.986,0.975H9.121l-1.808,2.762L5.505,12.37H2.629c-0.575,0-0.986-0.405-0.986-0.975V3.599c0-0.569,0.411-0.975,0.986-0.975h12.819c0.575,0,0.986,0.406,0.986,0.975V11.396zM15.448,1H2.629C1.15,1,0,2.137,0,3.599v7.796c0,1.462,1.15,2.6,2.629,2.6h1.972l1.479,2.355C6.245,16.675,6.574,16.919,6.985,17c0.082,0,0.247,0,0.329,0c0.247,0,0.493-0.081,0.739-0.243c0.165-0.082,0.329-0.244,0.411-0.406l1.479-2.355h5.423c1.479,0,2.63-1.138,2.63-2.6V3.599C18.078,2.137,16.928,1,15.448,1z"/>
	</symbol>
	<symbol id="plyr-captions-on">
		<path d="M15.448,1H2.629C1.15,1,0,2.137,0,3.599v7.796c0,1.462,1.15,2.6,2.629,2.6h1.972l1.479,2.355C6.245,16.675,6.574,16.919,6.985,17c0.082,0,0.247,0,0.329,0c0.247,0,0.493-0.081,0.739-0.243c0.165-0.082,0.329-0.244,0.411-0.406l1.479-2.355h5.423c1.479,0,2.63-1.138,2.63-2.6V3.599C18.078,2.137,16.928,1,15.448,1z"/>
	</symbol>
	<symbol id="plyr-download">
		<path d="M9 13c.3 0 .5-.1.7-.3L15.4 7 14 5.6l-4 4V1H8v8.6l-4-4L2.6 7l5.7 5.7c.2.2.4.3.7.3zm-7 2h14v2H2z"></path>
	</symbol>
	<symbol id="plyr-enter-fullscreen">
		<path d="M7.32 11.589c0 .246-.082.41-.246.574l-2.867 2.87 2.458.327c.41.082.737.492.655.902S6.911 17 6.501 17h-.082l-4.67-.655-.655-4.674c-.082-.409.246-.901.656-.901.41-.082.901.246.901.656l.328 2.459 2.867-2.869a.792.792 0 0 1 1.147 0c.245.164.327.328.327.573zm3.441-5.083c0-.246.082-.41.246-.574l2.867-2.869-2.458-.328c-.409-.082-.737-.492-.655-.902.082-.41.492-.738.901-.656l4.67.656.655 4.509c.082.41-.246.902-.655.902h-.082c-.41 0-.737-.328-.819-.738l-.328-2.46-2.867 2.87a.881.881 0 0 1-.573.246.742.742 0 0 1-.573-.246c-.247 0-.329-.246-.329-.41zM4.125 2.981L6.993 5.85c.164.164.246.41.246.574 0 .246-.082.41-.246.574s-.41.246-.573.246a.744.744 0 0 1-.574-.246l-2.867-2.87-.328 2.46c-.082.41-.41.738-.819.738H1.75c-.492-.082-.819-.492-.738-.984l.656-4.673 4.669-.656c.41-.082.901.246.901.656.082.41-.246.902-.655.902l-2.458.41zm12.207 7.789c.409.082.737.492.655.901l-.655 4.674-4.67.655h-.082c-.409 0-.737-.327-.819-.737s.246-.902.655-.902l2.458-.327-2.867-2.87a.886.886 0 0 1-.246-.574c0-.245.082-.409.246-.573a.79.79 0 0 1 1.146 0l2.868 2.869.327-2.459c.083-.411.574-.739.984-.657z"></path>
	</symbol>
	<symbol id="plyr-exit-fullscreen">
		<path d="M1.013 16.176c0-.243.082-.406.245-.568l2.853-2.84-2.445-.325c-.408-.081-.734-.486-.652-.893.082-.405.408-.73.815-.73h.081l4.646.649.652 4.626c.082.405-.244.893-.652.893-.408.081-.896-.243-.896-.649l-.326-2.435-2.854 2.84a.791.791 0 0 1-1.141 0 .702.702 0 0 1-.326-.568zM16.987 1.893a.735.735 0 0 1-.244.568L13.89 5.302l2.445.324c.407.081.733.487.651.893-.081.406-.488.73-.896.649l-4.646-.649-.652-4.626c-.08-.406.246-.893.653-.893h.082c.407 0 .733.324.814.73l.326 2.435 2.853-2.841a.882.882 0 0 1 .57-.243c.245 0 .408.081.571.243.245.163.326.325.326.569zM4.11 5.301L1.257 2.46a.733.733 0 0 1-.244-.567c0-.244.082-.406.245-.568a.736.736 0 0 1 .57-.244c.244 0 .407.081.57.243l2.853 2.841.326-2.435c.082-.406.407-.73.815-.73h.082c.408.081.733.487.652.893L6.555 6.6l-4.646.649c-.407.081-.896-.244-.896-.649-.082-.406.244-.893.734-.893l2.363-.406zm7.335 11.605c-.407-.081-.733-.487-.652-.893l.652-4.626 4.646-.649h.082c.407 0 .733.325.814.73.082.406-.244.893-.651.893l-2.445.325 2.853 2.84c.163.162.244.406.244.568s-.081.405-.244.568a.791.791 0 0 1-1.141 0l-2.854-2.841-.325 2.435c-.163.407-.571.731-.979.65z"></path>
	</symbol>
	<symbol id="plyr-fast-forward">
		<path d="M7.875 7.171L0 1v16l7.875-6.171V17L18 9 7.875 1z"></path>
	</symbol>
	<symbol id="plyr-logo-vimeo">
		<path d="M17 5.3c-.1 1.6-1.2 3.7-3.3 6.4-2.2 2.8-4 4.2-5.5 4.2-.9 0-1.7-.9-2.4-2.6C5 10.9 4.4 6 3 6c-.1 0-.5.3-1.2.8l-.8-1c.8-.7 3.5-3.4 4.7-3.5 1.2-.1 2 .7 2.3 2.5.3 2 .8 6.1 1.8 6.1.9 0 2.5-3.4 2.6-4 .1-.9-.3-1.9-2.3-1.1.8-2.6 2.3-3.8 4.5-3.8 1.7.1 2.5 1.2 2.4 3.3z"></path>
	</symbol>
	<symbol id="plyr-logo-youtube">
		<path d="M16.8 5.8c-.2-1.3-.8-2.2-2.2-2.4C12.4 3 9 3 9 3s-3.4 0-5.6.4C2 3.6 1.3 4.5 1.2 5.8 1 7.1 1 9 1 9s0 1.9.2 3.2c.2 1.3.8 2.2 2.2 2.4C5.6 15 9 15 9 15s3.4 0 5.6-.4c1.4-.3 2-1.1 2.2-2.4.2-1.3.2-3.2.2-3.2s0-1.9-.2-3.2zM7 12V6l5 3-5 3z"></path>
	</symbol>
	<symbol id="plyr-muted">
		<path d="M15.525,8.968l1.051-1.018c0.299-0.29,0.299-0.727,0-1.018c-0.3-0.29-0.75-0.29-1.051,0l-1.05,1.018l-1.05-1.018c-0.3-0.29-0.751-0.29-1.05,0c-0.3,0.291-0.3,0.728,0,1.018l1.05,1.018l-1.05,1.018c-0.3,0.291-0.3,0.727,0,1.018c0.148,0.146,0.375,0.218,0.524,0.218s0.375-0.072,0.525-0.218l1.05-1.018l1.05,1.018c0.15,0.146,0.375,0.218,0.525,0.218s0.375-0.072,0.525-0.218c0.299-0.291,0.299-0.727,0-1.018L15.525,8.968z"/>
		<path d="M7.726,3.372l-3.301,2.18C4.276,5.697,4.126,5.771,3.976,5.771H2.25c-0.6,0-1.201,0.218-1.575,0.653C0.225,6.788,0,7.369,0,7.95v2.181c0,1.163,1.05,2.18,2.25,2.18h1.8c0.15,0,0.3,0.073,0.45,0.146l3.226,2.181C8.101,14.928,8.551,15,9,15c1.275,0,2.25-0.944,2.25-2.181V5.188c0-0.436-0.151-0.872-0.374-1.235C10.125,2.936,8.7,2.718,7.726,3.372z M9.751,12.819c0,0.437-0.301,0.728-0.75,0.728c-0.15,0-0.3-0.073-0.45-0.146l-3.224-2.181C4.95,11.003,4.5,10.857,4.05,10.857h-1.8c-0.375,0-0.75-0.291-0.75-0.727V7.95c0-0.218,0.074-0.363,0.225-0.509s0.3-0.218,0.525-0.218h1.725c0.449,0,0.9-0.146,1.275-0.363l3.3-2.181C8.926,4.462,9.375,4.534,9.6,4.825c0.076,0.073,0.151,0.218,0.151,0.363V12.819z"/>
	</symbol>
	<symbol id="plyr-pause">
		<path d="M4,3h3c0.552,0,1,0.448,1,1v10c0,0.553-0.448,1-1,1H4c-0.552,0-1-0.447-1-1V4C3,3.448,3.448,3,4,3z"/>
		<path d="M11,3h3c0.553,0,1,0.448,1,1v10c0,0.553-0.447,1-1,1h-3c-0.553,0-1-0.447-1-1V4C10,3.448,10.447,3,11,3z"/>
	</symbol>
	<symbol id="plyr-pip">
		<path d="M6.091,12.637H3.909c-0.8,0-1.455-0.655-1.455-1.455V3.909c0-0.8,0.654-1.455,1.455-1.455h9.454c0.801,0,1.455,0.654,1.455,1.455v3.636c0,0.437,0.291,0.728,0.728,0.728c0.436,0,0.727-0.291,0.727-0.728V3.909c0-1.6-1.309-2.909-2.909-2.909H3.909C2.309,1,1,2.309,1,3.909v7.272c0,1.601,1.309,2.909,2.909,2.909h2.182c0.437,0,0.728-0.291,0.728-0.728C6.818,12.928,6.527,12.637,6.091,12.637z"/>
		<path d="M4.636,8.273C4.636,8.709,4.927,9,5.364,9h2.909c0.073,0,0.218,0,0.291-0.073c0.146-0.073,0.291-0.218,0.364-0.364C9,8.491,9,8.346,9,8.273V5.364c0-0.437-0.291-0.728-0.727-0.728c-0.437,0-0.728,0.291-0.728,0.728v1.164l-2.4-2.4c-0.291-0.291-0.728-0.291-1.018,0c-0.291,0.291-0.291,0.727,0,1.018l2.4,2.4H5.364C4.927,7.545,4.636,7.836,4.636,8.273z"/>
		<path d="M14.091,9.728h-2.909c-1.6,0-2.909,1.309-2.909,2.909v1.454c0,1.601,1.309,2.909,2.909,2.909h2.909C15.691,17,17,15.691,17,14.091v-1.454C17,11.036,15.691,9.728,14.091,9.728z M15.546,14.091c0,0.8-0.655,1.455-1.455,1.455h-2.909c-0.8,0-1.454-0.655-1.454-1.455v-1.454c0-0.801,0.654-1.455,1.454-1.455h2.909c0.8,0,1.455,0.654,1.455,1.455V14.091z"/>
	</symbol>
	<symbol id="plyr-play">
		<path d="M14.616,9.852L4.524,16.062c-0.47,0.289-1.086,0.143-1.375-0.328C3.051,15.577,3,15.396,3,15.211V2.79c0-0.552,0.448-1,1-1c0.185,0,0.367,0.051,0.524,0.148l10.092,6.21c0.47,0.29,0.616,0.905,0.327,1.375C14.861,9.657,14.75,9.77,14.616,9.852z"/>
	</symbol>
	<symbol id="plyr-restart">
		<path d="M13,3H5C3.9,3,3,3.9,3,5v8c0,1.1,0.9,2,2,2h8c1.1,0,2-0.9,2-2V5C15,3.9,14.1,3,13,3z"/>
	</symbol>
	<symbol id="plyr-rewind">
		<polygon points="10.125 1 0 9 10.125 17 10.125 10.8285714 18 17 18 1 10.125 7.17142857"></polygon>
	</symbol>
	<symbol id="plyr-settings">
		<path d="M16.949,8.028c-0.067-0.598-0.671-0.931-1.141-0.931c-0.402,0-0.805-0.266-0.939-0.598c-0.134-0.332,0-0.797,0.27-1.063c0.401-0.399,0.47-0.997,0.134-1.462c-0.403-0.465-0.805-0.864-1.274-1.263c-0.47-0.333-1.073-0.266-1.477,0.133c-0.268,0.333-0.737,0.399-1.073,0.266c-0.402-0.133-0.604-0.532-0.604-0.931c0.067-0.598-0.402-1.063-0.939-1.13c-0.604-0.066-1.208-0.066-1.811,0C7.557,1.117,7.155,1.648,7.155,2.18c0,0.399-0.269,0.797-0.604,0.931c-0.335,0.133-0.805,0-1.073-0.266C5.076,2.446,4.405,2.379,3.935,2.778C3.465,3.11,3.063,3.575,2.66,4.041C2.325,4.439,2.392,5.104,2.861,5.569C3.197,5.835,3.264,6.233,3.13,6.632S2.593,7.23,2.19,7.23C1.587,7.164,1.117,7.563,1.05,8.161c-0.067,0.598-0.067,1.196,0,1.795c0.067,0.598,0.604,0.93,1.14,0.93c0.403,0,0.738,0.266,0.873,0.599c0.134,0.332,0,0.797-0.269,1.062c-0.402,0.399-0.47,0.997-0.134,1.463c0.403,0.465,0.805,0.863,1.275,1.263c0.47,0.332,1.073,0.266,1.476-0.133c0.268-0.333,0.737-0.399,1.073-0.267c0.402,0.133,0.604,0.531,0.604,0.931c-0.067,0.598,0.402,1.063,0.939,1.13C8.362,17,8.631,17,8.966,17c0.268,0,0.604,0,0.939-0.199c0.537-0.066,0.939-0.599,0.939-1.13c0-0.398,0.269-0.798,0.604-0.931c0.336-0.133,0.806,0,1.073,0.266c0.403,0.398,1.007,0.466,1.477,0.134c0.47-0.333,0.871-0.798,1.274-1.264c0.336-0.465,0.268-1.062-0.134-1.462c-0.336-0.266-0.403-0.664-0.27-1.063c0.135-0.332,0.47-0.598,0.872-0.598h0.067c0.537,0.066,1.073-0.333,1.141-0.931C17.017,9.224,17.017,8.626,16.949,8.028z M15.675,9.623c-0.872,0.066-1.677,0.598-2.013,1.396c-0.335,0.798-0.201,1.728,0.402,2.393c-0.201,0.266-0.469,0.532-0.737,0.731c-0.671-0.531-1.61-0.731-2.415-0.399c-0.806,0.332-1.342,1.063-1.409,1.928c-0.335,0-0.738,0-1.073,0c-0.067-0.864-0.604-1.661-1.476-1.994c-0.805-0.332-1.745-0.133-2.416,0.398c-0.268-0.199-0.536-0.464-0.737-0.73c0.536-0.664,0.737-1.595,0.402-2.393C3.867,10.155,3.13,9.623,2.258,9.557c0-0.333,0-0.731,0-1.063c0.939-0.067,1.677-0.599,2.013-1.396S4.472,5.37,3.867,4.705c0.269-0.266,0.47-0.531,0.805-0.731c0.604,0.532,1.61,0.665,2.348,0.399c0.805-0.333,1.409-1.13,1.476-1.927c0.402,0,0.738,0,1.074,0c0.066,0.864,0.604,1.661,1.408,1.994c0.806,0.332,1.744,0.133,2.415-0.399c0.269,0.199,0.537,0.465,0.738,0.731c-0.536,0.665-0.738,1.595-0.402,2.393c0.269,0.797,1.073,1.33,1.945,1.396C15.675,8.892,15.675,9.291,15.675,9.623z"/>
		<path d="M8.966,5.702c-1.878,0-3.354,1.462-3.354,3.323s1.476,3.323,3.354,3.323s3.354-1.462,3.354-3.323S10.845,5.702,8.966,5.702z M8.966,11.019c-1.141,0-2.013-0.863-2.013-1.994c0-1.13,0.872-1.994,2.013-1.994c1.14,0,2.012,0.864,2.012,1.994C10.979,10.155,10.106,11.019,8.966,11.019z"/>
	</symbol>
	<symbol id="plyr-volume">
		<path d="M15.449,4.389c-0.375-0.218-0.824-0.145-1.049,0.218s-0.15,0.799,0.225,1.018C15.75,6.424,16.5,7.66,16.5,9.041c0,1.308-0.676,2.617-1.875,3.416c-0.375,0.218-0.449,0.654-0.225,1.018c0.15,0.219,0.375,0.291,0.6,0.291c0.15,0,0.301-0.072,0.449-0.146C17.025,12.602,18,10.857,18,9.041C18,7.151,17.025,5.479,15.449,4.389z"/>
		<path d="M7.725,3.372l-3.3,2.181c-0.149,0.146-0.3,0.218-0.45,0.218H2.25c-0.6,0-1.2,0.218-1.575,0.654C0.225,6.788,0,7.369,0,7.95v2.181c0,1.163,1.05,2.18,2.25,2.18h1.8c0.15,0,0.3,0.073,0.45,0.146l3.225,2.181C8.1,14.928,8.55,15,9,15c1.275,0,2.25-0.944,2.25-2.181v-7.63c0-0.437-0.15-0.873-0.375-1.236C10.125,2.936,8.7,2.718,7.725,3.372z M9.75,12.819c0,0.437-0.3,0.728-0.75,0.728c-0.15,0-0.3-0.073-0.45-0.146l-3.225-2.181C4.95,11.003,4.5,10.857,4.05,10.857h-1.8c-0.375,0-0.75-0.29-0.75-0.727V7.95c0-0.218,0.075-0.363,0.225-0.508c0.15-0.146,0.301-0.218,0.525-0.218h1.725c0.45,0,0.9-0.145,1.275-0.363l3.3-2.181C8.925,4.462,9.375,4.535,9.6,4.825c0.076,0.073,0.15,0.218,0.15,0.364V12.819z"/>
		<path d="M14.025,6.642c-0.301-0.291-0.75-0.218-1.051,0.073c-0.299,0.291-0.225,0.727,0.076,1.018c0.299,0.291,0.523,0.799,0.523,1.308c0,0.508-0.148,1.018-0.523,1.308c-0.301,0.291-0.301,0.727-0.076,1.018c0.15,0.146,0.375,0.218,0.525,0.218s0.375-0.072,0.525-0.218C14.625,10.785,15,9.985,15,9.041S14.625,7.224,14.025,6.642z"/>
	</symbol>
</svg>