<svg xmlns="http://www.w3.org/2000/svg" width="304.492" height="304.468" xml:space="preserve"><g fill="#595959"><path d="M152.256 44.696c-59.275 0-107.531 48.236-107.531 107.531 0 59.3 48.256 107.556 107.531 107.556 59.296 0 107.531-48.256 107.531-107.556 0-59.295-48.235-107.531-107.531-107.531zm49.075 138.588c4.974 4.974 4.974 13.03 0 18.023-4.975 4.974-13.049 4.974-18.023 0l-31.052-31.047-31.052 31.047c-4.993 4.974-13.049 4.974-18.022 0-4.974-4.993-4.974-13.049 0-18.023l31.052-31.047-31.052-31.042c-4.974-4.974-4.974-13.039 0-18.022 4.974-4.974 13.029-4.974 18.022 0l31.052 31.042 31.052-31.042c4.975-4.974 13.049-4.974 18.023 0 4.974 4.983 4.974 13.049 0 18.022l-31.053 31.042 31.053 31.047z"/><path d="M152.256 0C68.307 0 0 68.297 0 152.236c0 83.944 68.307 152.231 152.256 152.231 83.95 0 152.236-68.287 152.236-152.231C304.492 68.297 236.206 0 152.256 0zm0 285.217c-73.339 0-133.005-59.646-133.005-132.98 0-73.329 59.666-132.985 133.005-132.985s132.985 59.656 132.985 132.985c0 73.333-59.646 132.98-132.985 132.98z"/></g></svg>